<?xml version="1.0" encoding="UTF-8"?>
<svg xmlns="http://www.w3.org/2000/svg" version="1.1" xmlns:xlink="http://www.w3.org/1999/xlink" viewBox="0 0 400 400">
  <defs>
    <style>
      .cls-1 {
        fill: #6e7073;
      }

      .cls-2 {
        fill: #e8c9b6;
      }

      .cls-3 {
        fill: #4f5252;
      }

      .cls-4 {
        fill: #e8ef78;
      }

      .cls-5 {
        fill: #446024;
      }

      .cls-6, .cls-7 {
        fill: none;
      }

      .cls-8 {
        fill: #dddddc;
      }

      .cls-9 {
        fill: #53af8a;
      }

      .cls-10 {
        fill: #35785d;
      }

      .cls-11 {
        fill: #6f9d52;
      }

      .cls-12 {
        fill: #c4c4c4;
      }

      .cls-13 {
        fill: #8a6651;
      }

      .cls-14 {
        fill: #b8c645;
      }

      .cls-15 {
        fill: #c3977a;
      }

      .cls-16, .cls-17 {
        fill: #2b2b2b;
      }

      .cls-18 {
        fill: #dfbca4;
      }

      .cls-19 {
        fill: #464646;
      }

      .cls-20 {
        fill: #3e8f6e;
      }

      .cls-21 {
        opacity: 1;
      }

      .cls-7 {
        stroke: #8a6651;
        stroke-miterlimit: 10;
        stroke-width: 4px;
      }

      .cls-17 {
        isolation: isolate;
        opacity: .1;
      }

      .cls-22 {
        fill: #5a753c;
      }

      .cls-23 {
        clip-path: url(#clippath);
      }

      .cls-24 {
        fill: #738d56;
      }

      .cls-25 {
        fill: #99c26c;
      }

      .cls-26 {
        fill: #9da0a1;
      }
    </style>
    <clipPath id="clippath">
      <rect class="cls-6" x="0" width="400" height="400"/>
    </clipPath>
  </defs>
  <!-- Generator: Adobe Illustrator 28.6.0, SVG Export Plug-In . SVG Version: 1.2.0 Build 709)  -->
  <g>
    <g id="_图层_1" data-name="图层_1">
      <g class="cls-23">
        <g>
          <path class="cls-17" d="M163.1,399.9l170.8-11.4-26.8-8.5-100-17.5-106.5,17.7-26.4,4.9,89,14.7Z"/>
          <g>
            <path class="cls-14" d="M261.4,106.7l-124.2,5.8-16.8,10.2-4.9,61.6,158.8,14.2,23.1-41-2.2-27.6-33.7-23.2h0Z"/>
            <path class="cls-4" d="M120.4,122.8l13.8,9.5,143.8,11.9,19.4,13.3-2.2-27.6-33.7-23.2-124.2,5.8s-16.8,10.2-16.8,10.2Z"/>
          </g>
          <g class="cls-21">
            <path class="cls-16" d="M268.8,147.6l-3.2-78.8-13.9-6.6-48.2-35.1-45.5,28.6-19.8,6.6-4.9,91.4,135.6-6.1Z"/>
          </g>
          <g>
            <path class="cls-5" d="M123.7,348.7l-23.9,31.4,22.9,4.9,145.6-.4,25.3-22-27.1-145.9-74.7-40.3-57.8,23.5-6.3,37.7-4.1,111.1h0Z"/>
            <path class="cls-22" d="M266.3,216.6l14.7,137,8.6,15.6,16.8,11-23.5-180.4-16.7,16.8h0Z"/>
            <path class="cls-11" d="M281.1,353.5l25.4,26.6-38.1,4.6,12.7-31.1Z"/>
          </g>
          <g>
            <path class="cls-20" d="M146,328.4v31c-.1,0,10.8,9.5,10.8,9.5h16.8s4.8-23.9,4.8-23.9l-32.4-16.6h0Z"/>
            <path class="cls-9" d="M145.9,359.5l27.7,9.5.5,11.1h-27.2c0,0-6.2.1-14.9,0s-6.9,0-6.9,0l20.8-20.6h0Z"/>
            <path class="cls-20" d="M116.5,374l16.2,6.1h41.3v9.2h-49s-8.6-15.3-8.6-15.3Z"/>
            <path class="cls-10" d="M145.9,331.8v-16c.1,0,36.3,11.9,36.3,11.9l-3.8,17.3-2.7,12.2-29.8-25.5h0Z"/>
            <path class="cls-20" d="M221.3,346.6l33.8-10.6.3,3,2.7,23.6-15,6.3-16.8-2-5.1-20.4h0Z"/>
            <path class="cls-9" d="M226.4,367l-.7,17.7h42.7s-10.2-22-10.2-22l-31.8,4.3Z"/>
            <path class="cls-20" d="M225.7,384.7l21.3-6.6,21.4,6.6v7.7h-42.7v-7.7Z"/>
            <path class="cls-10" d="M253.5,320.9l-40.6-2.4,8.3,28.1,2.7,10.6,31.4-17.7-1.8-18.7Z"/>
          </g>
          <path class="cls-22" d="M151.6,205.1l-4.2,12.3-55.5-21.6,42.4-63.7,11.9,23.1s5.6,50,5.6,50Z"/>
          <g>
            <path class="cls-22" d="M268.4,183.1l-21,54.2v17h-50.6s-18.8-72.7-18.8-72.7l35-27,38.6-20.2,16.8,48.7Z"/>
            <path class="cls-11" d="M192,176.1l-16.1-12.9-5.5-23.8-10.5.5-.9-10.3-24.8,2.3,11.7,98.6v23.8c.1,0,50.9,0,50.9,0v-17s-4.8-61.2-4.8-61.2h0Z"/>
          </g>
          <g>
            <path class="cls-22" d="M169,262l-22.9-5.3-.3,74.9,49.9,20.7,25.7-20.5-24.5-77.2-27.8,7.4Z"/>
            <path class="cls-11" d="M196.8,254.6l-1.1,97.7,60-13.8-7-65.6-51.9-18.2Z"/>
            <path class="cls-25" d="M247.4,254.6l1.2,18.2-102.6.8v-19h101.4s0,0,0,0Z"/>
          </g>
          <path class="cls-24" d="M245.2,206.5l3.5-41.1-9.7-34.6,39,13.1,5,55.5s-37.8,7.1-37.8,7.1Z"/>
          <g>
            <path class="cls-10" d="M192.4,166.9l7.9,1.8-8.3,7.4-35.1-12.7-1.3-21.8,14.7-2.1,8.1,12.9,14,14.5h0Z"/>
            <path class="cls-9" d="M192.4,166.9l32.4-20.6,14.2-14.7,12.6,3.6-2.9,30.3-56.7,10.7.4-9.2h0Z"/>
          </g>
          <g>
            <path class="cls-18" d="M155.6,141.9l-9.6-121.7,102.7,4.4-8.8,100.9-18.6,13.3-65.7,3.1h0Z"/>
            <path class="cls-15" d="M165.5,141.4l2.2,13.6,24.7,12.1,47.5-13.8,2.4-15.3,10.6-122.8-12.1,19.2-8.1,98.1-67.2,8.8h0Z"/>
            <path class="cls-13" d="M189.7,159.4l52.6-21.3-76.8,3.4,24.2,17.9h0Z"/>
            <path class="cls-3" d="M225.5,0h-57.3s-12.6,15.2-12.6,15.2l-21.9,9.4,4.3,38,11.5,2-2.7-35.6,44.3,14.5,47.9-21.6,8.1,61.8,18.5-14.5-2-51.1-21.4-5.3L225.5,0h0Z"/>
            <path class="cls-1" d="M191.2,43.5l49.6-9,22.9-16.4L225.5,0l-34.3,43.5Z"/>
            <path class="cls-15" d="M232.7,138.5l-77.1,3.4-2.3-29.2,81.4-4.7-2,30.5Z"/>
            <path class="cls-19" d="M133.7,24.6l13.5,9.5,43.9,9.3L168.2,0l-34.5,24.6Z"/>
            <path class="cls-13" d="M232.7,138.5l9.6-.4,2.9-34.3-10.5,4.2-2,30.5Z"/>
          </g>
          <g>
            <path class="cls-13" d="M190.9,123.4h23.1s3.9-3.9,3.9-3.9"/>
            <path class="cls-7" d="M190.9,123.4h23.1s3.9-3.9,3.9-3.9"/>
            <path class="cls-13" d="M220.4,117l.9,7.2-8.3-8.1,7.5.9h0Z"/>
          </g>
          <g>
            <path class="cls-13" d="M183.3,100.4l9.6,6.6,9.6-6.6h-19.3Z"/>
            <path class="cls-15" d="M232.7,75.2l-7.1-8.2-28.7,2.6,5.7,30.8,10-19.1,20.1-6.2h0ZM183.3,100.5l5.7-11.7v-19.1s-15.7-.4-15.7-.4l-13,1.4-7.1,4.5,15.8,6.2,14.3,19.1h0Z"/>
            <path class="cls-2" d="M183.3,100.4l5.7-30.8h7.9s5.7,30.8,5.7,30.8l-9.6,2.4-9.6-2.4h0Z"/>
            <path class="cls-19" d="M173.6,66.2l-13.3-2.9-7.1,11.8,7.1-4.5,28.7-1.1-15.5-3.4ZM225.6,63.3l7.1,11.8-7.1-4.5-28.7-1.1,28.7-6.3Z"/>
          </g>
          <path class="cls-16" d="M173.3,76.5c2.7,0,4.9,2.2,4.9,4.9,0,2.7-2.2,4.9-4.9,4.9s-4.9-2.2-4.9-4.9c0-2.7,2.2-4.9,4.9-4.9h0ZM222,81.4c0,2.7-2.2,4.9-4.9,4.9s-4.9-2.2-4.9-4.9,2.2-4.9,4.9-4.9,4.9,2.2,4.9,4.9Z"/>
          <g>
            <path class="cls-12" d="M168.6,385.2h-11v-225.9h11v225.9Z"/>
            <path class="cls-8" d="M173.4,158.7c0,5.7-4.6,10.2-10.2,10.2s-10.2-4.6-10.2-10.2c0-5.7,4.6-10.2,10.2-10.2s10.2,4.6,10.2,10.2Z"/>
            <path class="cls-12" d="M181.2,389.2v-161.4s-23.6-.1-23.6-.1l-4.7,152.2,10.6,17.4,17.6-8.1h0Z"/>
            <path class="cls-26" d="M145.9,389.2l17.6,8.1-.4-169.6h-17.2s0,161.4,0,161.4Z"/>
            <path class="cls-8" d="M133.7,230.6h21.9s7.6,7.6,7.6,7.6l7.6-7.6h20.3s5.9,6.8,5.9,6.8l12.1-12.1-12.1-10.5-10,10h-16.1s-7.6-7.6-7.6-7.6l-7.6,7.6h-17.8s-10-10-10-10l-10.5,10.5,10.5,12.1,5.9-6.7Z"/>
          </g>
          <path class="cls-9" d="M194,201.9l-7.7,7.7,2,17.8,59.1,9.9,35.6-37.8s-89,2.4-89,2.4Z"/>
          <path class="cls-9" d="M120.1,228.2l25.1-3.6,6.4-12.6-9.1-10.4-50.6-5.9s28.3,32.5,28.3,32.5Z"/>
          <g>
            <path class="cls-18" d="M168.9,194.3l25.1,7.6-5.7,25.6-19.4-33.1ZM168.9,194.3l-26.4,7.3,2.7,23h26.1s2.1-13.7,2.1-13.7l-4.5-16.6h0Z"/>
            <path class="cls-15" d="M168.9,194.3l16.3,13.9,3.1,19.2-17-2.8-2.4-30.3h0Z"/>
          </g>
        </g>
      </g>
    </g>
  </g>
</svg>